<svg width="51" height="48" viewBox="0 0 51 48" fill="none" xmlns="http://www.w3.org/2000/svg">
<path d="M13.6744 19.1436C13.2327 18.8428 12.7898 18.6923 12.3481 18.6923H10.3628V29.5298H12.3493C12.791 29.5298 13.2338 29.3794 13.6755 29.0785C14.1172 28.7777 14.3381 28.3264 14.3381 27.7237V20.4984C14.3369 19.8967 14.1149 19.4444 13.6744 19.1436V19.1436ZM46.0025 0.855747H4.99754C2.24263 0.855747 0.00683036 2.88796 0 5.39944V42.7864C0.00683036 45.2979 2.24263 47.3301 4.99754 47.3301H46.0025C48.7585 47.3301 50.9932 45.2979 51 42.7864V5.39944C50.9932 2.88796 48.7574 0.855747 46.0025 0.855747V0.855747ZM17.554 27.7434C17.554 29.6947 16.2323 32.6512 12.0487 32.645H6.76661V15.4806H12.1603C16.1948 15.4806 17.5517 18.433 17.5529 20.3853L17.554 27.7434ZM29.0154 18.5461H22.95V22.5317H26.6577V25.5992H22.95V29.5837H29.0165V32.6512H21.938C20.6675 32.6813 19.6111 31.7664 19.5792 30.6087V17.6301C19.5485 16.4734 20.5537 15.5128 21.823 15.4838H29.0165L29.0154 18.5461ZM40.8137 30.506C39.311 33.6959 36.6187 33.061 35.4131 30.506L31.0269 15.4848H34.7346L38.1168 27.2818L41.483 15.4848H45.1919L40.8137 30.506V30.506Z" fill="#27AE60"/>
</svg>
