<svg width="57" height="48" viewBox="0 0 57 48" fill="none" xmlns="http://www.w3.org/2000/svg">
<path d="M55.7752 22.6406L50.5706 14.2379C50.6819 14.0305 50.7655 13.7971 50.7655 13.5377C50.7655 12.7596 50.0697 12.1112 49.2347 12.0853L43.4735 2.80079C43.5292 2.6452 43.5848 2.4896 43.5848 2.33401C43.5848 1.50416 42.8612 0.855747 41.9983 0.855747C41.4974 0.855747 41.0799 1.06323 40.7737 1.40037H29.6967C29.4184 1.06333 29.0009 0.855844 28.4999 0.855844C27.999 0.855844 27.5815 1.06333 27.3032 1.40046H16.2818C15.9756 1.06333 15.5582 0.855844 15.0572 0.855844C14.1944 0.855844 13.4707 1.50416 13.4707 2.33411C13.4707 2.4897 13.5264 2.67124 13.5821 2.80088L7.76518 12.2151C7.20866 12.4484 6.81891 12.9412 6.81891 13.5378C6.81891 13.5896 6.84675 13.6415 6.84675 13.6934L1.30817 22.6147C0.556726 22.7444 0 23.3409 0 24.0671C0 24.7673 0.528775 25.3638 1.25248 25.5194L6.98588 34.752C6.93019 34.9076 6.90234 35.0373 6.90234 35.2188C6.90234 35.919 7.43112 36.5155 8.15482 36.6452L13.5264 45.3331C13.4707 45.4887 13.4151 45.6703 13.4151 45.8518C13.4151 46.6817 14.1387 47.3301 15.0016 47.3301C15.5025 47.3301 15.92 47.1226 16.1984 46.8114H27.3033C27.5815 47.1225 28.0269 47.33 28.4999 47.33C28.973 47.33 29.4184 47.1225 29.6967 46.8113H40.8295C41.1077 47.0965 41.5252 47.2781 41.9706 47.2781C42.8612 47.2781 43.557 46.6038 43.557 45.7998C43.557 45.6442 43.5293 45.5146 43.4736 45.3849L48.8452 36.6451C49.5688 36.5154 50.0977 35.9189 50.0977 35.2187C50.0977 35.0631 50.0698 34.9075 50.0141 34.7519L55.7197 25.5193C56.4433 25.3896 57 24.7931 57 24.067C56.9998 23.3668 56.4709 22.7702 55.7752 22.6406ZM14.5283 42.9471L9.99177 35.6077H14.5283V42.9471ZM14.5283 34.8297H9.99177C9.96392 34.726 9.90823 34.6223 9.85264 34.5185L14.5283 29.9282V34.8297ZM14.5283 28.787L9.29591 33.9479C9.15678 33.896 9.01755 33.8182 8.87842 33.7924L3.08953 24.456C3.14512 24.3263 3.14512 24.1966 3.14512 24.067C3.14512 23.9373 3.14512 23.8336 3.11727 23.7298L8.51672 15.0159C8.79509 14.99 9.07335 14.9121 9.32386 14.7565L14.5284 19.7879V28.787H14.5283ZM14.5283 18.8801L9.7691 14.2898C9.90823 14.0823 9.99177 13.823 9.99177 13.5378C9.99177 13.5118 9.96392 13.4599 9.96392 13.434L14.5283 11.9038V18.8801ZM14.5283 11.0739L9.99177 12.604L14.5283 5.29054V11.0739ZM48.4554 14.8603L48.539 14.99L44.8651 31.173L38.2411 24.6635L48.4276 14.8344L48.4554 14.8603ZM28.8896 33.6886L30.0864 34.8297H27.7207L28.8896 33.6886ZM28.8617 32.5993L20.2061 24.3263L28.4721 16.1571L37.1 24.6375L28.8617 32.5993ZM29.4184 33.1699L37.6566 25.2081L44.6702 32.1066L44.058 34.8297H31.1718L29.4184 33.1699ZM41.2191 3.60489C41.3304 3.65678 41.4417 3.70868 41.5809 3.73463L47.5926 13.4859V13.5378C47.5926 13.823 47.676 14.0823 47.8153 14.2898L37.6845 24.0929L29.0567 15.6124L41.2191 3.60489ZM40.2729 3.3974L28.4721 15.0419L22.5439 9.20667L39.8274 3.3974H40.2729ZM27.4423 3.3974C27.7206 3.65669 28.0823 3.81228 28.4999 3.81228C28.9175 3.81228 29.2792 3.65669 29.5576 3.3974H37.3505L21.9317 8.5842L16.6436 3.3974H27.4423ZM15.3634 3.94202L15.4747 3.73463C15.5686 3.71226 15.6614 3.68629 15.753 3.65678L21.0689 8.86963L15.3634 10.7887V3.94202ZM15.3634 11.6186L21.6811 9.492L27.8876 15.6124L19.6216 23.7558L15.3634 19.6842V11.6186ZM15.3634 20.5918L19.1484 24.2485L15.3634 27.9571V20.5918ZM15.3634 29.0983L19.7329 24.7932L28.333 33.1181L26.5517 34.8297H15.3634V29.0983ZM16.087 44.7884C15.92 44.6328 15.7252 44.5291 15.4747 44.4513L15.3634 44.2957V35.6077H25.7446L16.2261 44.7884H16.087ZM29.5854 44.7884C29.3071 44.5551 28.9175 44.3735 28.4999 44.3735C28.0823 44.3735 27.6929 44.5551 27.4144 44.7884H17.3949L26.9134 35.6077H30.8934L40.4119 44.7884H29.5854ZM42.0541 43.6473L41.6088 44.3734C41.4697 44.3994 41.3584 44.4512 41.247 44.5031L31.979 35.6077H43.8633L42.0541 43.6473ZM43.3899 41.4948L44.7259 35.6077H47.0081L43.3899 41.4948ZM47.0081 34.8297H44.8929L45.366 32.781L47.1473 34.5445C47.0917 34.6222 47.036 34.7259 47.0081 34.8297ZM53.8826 24.43L48.1214 33.7924C47.9822 33.8442 47.843 33.896 47.7039 33.9738L45.5608 31.8472L49.1512 15.9755L53.9104 23.6521C53.8826 23.7817 53.8269 23.9114 53.8269 24.067C53.8269 24.1966 53.8548 24.3004 53.8826 24.43Z" fill="#27AE60"/>
</svg>
